<svg width="5" height="5" viewBox="0 0 5 5" fill="none" xmlns="http://www.w3.org/2000/svg">
<path d="M4.94531 3.70311L4.94197 0.334818C4.94197 0.143969 4.81809 0.0100403 4.6172 0.0100403H1.24888C1.06138 0.0100403 0.934151 0.154013 0.934151 0.314727C0.934151 0.475441 1.07813 0.612718 1.23549 0.612718H2.40067L4.0346 0.559147L3.41183 1.10491L0.09375 4.42968C0.0334823 4.48994 0 4.56697 0 4.64062C0 4.80134 0.143973 4.952 0.311383 4.952C0.388394 4.952 0.462054 4.92522 0.52232 4.8616L3.84709 1.54017L4.39954 0.914058L4.33929 2.47768V3.71651C4.33929 3.87388 4.47657 4.0212 4.64063 4.0212C4.80134 4.0212 4.94531 3.88394 4.94531 3.70311Z" fill="white"/>
</svg>
