<svg width="16" height="16" viewBox="0 0 16 16" fill="none" xmlns="http://www.w3.org/2000/svg">
<path d="M11.4286 7.90178C11.4286 7.73441 11.3683 7.58704 11.2411 7.45984L5.93082 2.27012C5.81698 2.14955 5.66967 2.08927 5.49556 2.08927C5.14733 2.08927 4.8795 2.35047 4.8795 2.69869C4.8795 2.87275 4.95316 3.02012 5.0603 3.13395L9.93529 7.90178L5.0603 12.6697C4.95316 12.7835 4.8795 12.9375 4.8795 13.1049C4.8795 13.4531 5.14733 13.7143 5.49556 13.7143C5.66967 13.7143 5.81698 13.654 5.93082 13.5402L11.2411 8.34376C11.3683 8.22322 11.4286 8.0692 11.4286 7.90178Z" fill="black" fill-opacity="0.3"/>
</svg>
