<svg width="16" height="17" viewBox="0 0 16 17" fill="none" xmlns="http://www.w3.org/2000/svg">
<path d="M2.28613 8.49109C2.28613 11.779 4.92453 14.4174 8.20579 14.4174C11.487 14.4174 14.1187 11.779 14.1187 8.49109C14.1187 5.20982 11.487 2.57813 8.20579 2.57813C7.7906 2.57813 7.39551 2.625 7.04729 2.69197L8.82853 0.930806C8.92899 0.823663 8.97585 0.689731 8.97585 0.549107C8.97585 0.241071 8.74819 0 8.45356 0C8.28613 0 8.15219 0.0535714 8.05848 0.160714L5.29953 2.95982C5.19238 3.06697 5.13212 3.21429 5.13212 3.36161C5.13212 3.51562 5.18569 3.64955 5.29953 3.76339L8.05848 6.53571C8.15888 6.63617 8.28613 6.68971 8.44682 6.68971C8.74819 6.68971 8.97585 6.46206 8.97585 6.154C8.97585 6.01337 8.92899 5.87949 8.82185 5.77234L6.82631 3.79018C7.2147 3.69643 7.69015 3.65625 8.20579 3.65625C10.891 3.65625 13.0406 5.80583 13.0406 8.49109C13.0406 11.183 10.891 13.3393 8.20579 13.3393C5.52051 13.3393 3.36426 11.183 3.36426 8.49109C3.36426 8.16966 3.16337 7.93526 2.84194 7.93526C2.51381 7.93526 2.28613 8.16966 2.28613 8.49109Z" fill="#1E6EF4"/>
</svg>
