<svg width="12" height="17" viewBox="0 0 12 17" fill="none" xmlns="http://www.w3.org/2000/svg">
<path d="M0 8.49109C0 11.779 2.63839 14.4174 5.91966 14.4174C9.20091 14.4174 11.8326 11.779 11.8326 8.49109C11.8326 5.20982 9.20091 2.57813 5.91966 2.57813C5.50446 2.57813 5.10938 2.625 4.76116 2.69197L6.5424 0.930806C6.64286 0.823663 6.68971 0.689731 6.68971 0.549107C6.68971 0.241071 6.46206 0 6.16743 0C6 0 5.86606 0.0535714 5.77234 0.160714L3.01339 2.95982C2.90625 3.06697 2.84598 3.21429 2.84598 3.36161C2.84598 3.51562 2.89955 3.64955 3.01339 3.76339L5.77234 6.53571C5.87274 6.63617 6 6.68971 6.16069 6.68971C6.46206 6.68971 6.68971 6.46206 6.68971 6.154C6.68971 6.01337 6.64286 5.87949 6.53571 5.77234L4.54018 3.79018C4.92857 3.69643 5.40402 3.65625 5.91966 3.65625C8.60491 3.65625 10.7545 5.80583 10.7545 8.49109C10.7545 11.183 8.60491 13.3393 5.91966 13.3393C3.23438 13.3393 1.07813 11.183 1.07813 8.49109C1.07813 8.16966 0.877234 7.93526 0.555803 7.93526C0.227679 7.93526 0 8.16966 0 8.49109Z" fill="#1E6EF4"/>
</svg>
