<svg width="9" height="11" viewBox="0 0 9 11" fill="none" xmlns="http://www.w3.org/2000/svg">
<path d="M4.17355 10.4113C4.25391 10.4113 4.3845 10.3811 4.51003 10.3108C7.36774 8.70869 8.34711 8.03069 8.34711 6.19752V2.35546C8.34711 1.82811 8.12109 1.66238 7.69419 1.48158C7.10156 1.23548 5.18807 0.547423 4.59544 0.341509C4.4598 0.296308 4.31417 0.266174 4.17355 0.266174C4.03293 0.266174 3.88728 0.306353 3.75669 0.341509C3.16406 0.512267 1.24554 1.2405 0.652903 1.48158C0.231027 1.65736 0 1.82811 0 2.35546V6.19752C0 8.03069 0.984377 8.70368 3.83705 10.3108C3.96763 10.3811 4.09319 10.4113 4.17355 10.4113ZM4.17355 9.50223C4.09319 9.50223 4.01283 9.47211 3.86217 9.38168C1.54185 7.97545 0.798549 7.56359 0.798549 6.01169V2.51115C0.798549 2.34039 0.828681 2.2751 0.969309 2.21986C1.7327 1.91852 3.21429 1.42131 3.97266 1.11997C4.05301 1.08481 4.11831 1.07477 4.17355 1.07477C4.2288 1.07477 4.29407 1.08984 4.37443 1.11997C5.13283 1.42131 6.60437 1.95367 7.38283 2.21986C7.51843 2.27008 7.54856 2.34039 7.54856 2.51115V6.01169C7.54856 7.56359 6.80524 7.97043 4.48491 9.38168C4.33929 9.47211 4.25391 9.50223 4.17355 9.50223Z" fill="#5E5CE6"/>
<path d="M3.62626 7.4782C3.79199 7.4782 3.93262 7.39784 4.03306 7.2472L6.32825 3.63111C6.38851 3.53569 6.44881 3.4252 6.44881 3.30968C6.44881 3.0887 6.2479 2.94305 6.04201 2.94305C5.91142 2.94305 5.78585 3.01839 5.69041 3.16906L3.60616 6.51392L2.61677 5.23322C2.49623 5.0725 2.38574 5.02733 2.25014 5.02733C2.02916 5.02733 1.8584 5.20309 1.8584 5.42912C1.8584 5.53459 1.9036 5.64507 1.97391 5.74047L3.19936 7.2472C3.32491 7.41293 3.46052 7.4782 3.62626 7.4782Z" fill="#5E5CE6"/>
</svg>
