<svg width="16" height="16" viewBox="0 0 16 16" fill="none" xmlns="http://www.w3.org/2000/svg">
<path d="M2.62835 15.4269H12.7818C14.5396 15.4269 15.4101 14.5564 15.4101 12.832V2.61162C15.4101 0.887292 14.5396 0.0167542 12.7818 0.0167542H2.62835C0.878907 0.0167542 0 0.87892 0 2.61162V12.832C0 14.5647 0.878907 15.4269 2.62835 15.4269ZM2.64509 14.0792C1.80804 14.0792 1.34766 13.6356 1.34766 12.7651V2.67858C1.34766 1.80805 1.80804 1.36441 2.64509 1.36441H12.7651C13.5937 1.36441 14.0625 1.80805 14.0625 2.67858V12.7651C14.0625 13.6356 13.5937 14.0792 12.7651 14.0792H2.64509Z" fill="black" fill-opacity="0.25"/>
</svg>
