<svg width="16" height="16" viewBox="0 0 16 16" fill="none" xmlns="http://www.w3.org/2000/svg">
<path d="M2.62835 15.4269H12.7818C14.5396 15.4269 15.4101 14.5564 15.4101 12.832V2.61161C15.4101 0.887276 14.5396 0.0167389 12.7818 0.0167389H2.62835C0.878907 0.0167389 0 0.878905 0 2.61161V12.832C0 14.5647 0.878907 15.4269 2.62835 15.4269Z" fill="#1E6EF4"/>
<path d="M6.77191 11.8024C6.48731 11.8024 6.25293 11.6853 6.0353 11.3923L3.93429 8.81414C3.80873 8.64679 3.7334 8.46264 3.7334 8.27007C3.7334 7.89343 4.02637 7.58371 4.41141 7.58371C4.64579 7.58371 4.82994 7.65907 5.03921 7.93529L6.73842 10.1284L10.3126 4.38616C10.4717 4.13504 10.6893 4.00111 10.9153 4.00111C11.2753 4.00111 11.6184 4.25223 11.6184 4.64565C11.6184 4.8298 11.518 5.02232 11.4092 5.1981L7.475 11.3923C7.29928 11.6685 7.05651 11.8024 6.77191 11.8024Z" fill="white"/>
</svg>
