<svg width="6" height="4" viewBox="0 0 6 4" fill="none" xmlns="http://www.w3.org/2000/svg">
<path d="M2.9096 3.56586C2.99331 3.56586 3.077 3.53238 3.13394 3.46875L5.72546 0.813621C5.78237 0.756701 5.81586 0.683038 5.81586 0.599335C5.81586 0.425226 5.68526 0.291298 5.51117 0.291298C5.42746 0.291298 5.35046 0.324781 5.29351 0.378352L2.72879 3H3.08706L0.52232 0.378352C0.468749 0.324781 0.39174 0.291298 0.304689 0.291298C0.13058 0.291298 0 0.425226 0 0.599335C0 0.683038 0.0334823 0.756701 0.0904017 0.816969L2.68192 3.46875C2.74554 3.53238 2.82255 3.56586 2.9096 3.56586Z" fill="black"/>
</svg>
