<svg width="9" height="15" viewBox="0 0 9 15" fill="none" xmlns="http://www.w3.org/2000/svg">
<path d="M0 7.26564C0 7.47486 0.075335 7.65907 0.234375 7.81807L6.87221 14.3052C7.01451 14.4559 7.19864 14.5313 7.41629 14.5313C7.85157 14.5313 8.18636 14.2048 8.18636 13.7695C8.18636 13.5519 8.09429 13.3677 7.96036 13.2254L1.86663 7.26564L7.96036 1.3058C8.09429 1.16351 8.18636 0.970986 8.18636 0.761721C8.18636 0.326451 7.85157 0 7.41629 0C7.19864 0 7.01451 0.075335 6.87221 0.217634L0.234375 6.71317C0.075335 6.86384 0 7.05636 0 7.26564Z" fill="black"/>
</svg>
