<svg width="7" height="12" viewBox="0 0 7 12" fill="none" xmlns="http://www.w3.org/2000/svg">
<path d="M6.54909 5.8192C6.54909 5.65183 6.48882 5.50446 6.36159 5.37726L1.05132 0.187543C0.93748 0.0669715 0.790171 0.00668596 0.616057 0.00668596C0.267829 0.00668596 -8.84082e-08 0.267886 -8.84082e-08 0.616114C-8.84082e-08 0.790172 0.0736574 0.937543 0.1808 1.05137L5.05578 5.8192L0.1808 10.5871C0.0736574 10.7009 -8.84082e-08 10.8549 -8.84082e-08 11.0223C-8.84082e-08 11.3706 0.267829 11.6317 0.616057 11.6317C0.790171 11.6317 0.93748 11.5714 1.05132 11.4576L6.36159 6.26118C6.48882 6.14064 6.54909 5.98662 6.54909 5.8192Z" fill="black" fill-opacity="0.3"/>
</svg>
