<svg width="24" height="24" viewBox="0 0 24 24" fill="none" xmlns="http://www.w3.org/2000/svg">
<path d="M21.7488 16.2376L20.8955 17.6921C20.854 17.7555 18.9491 20.6624 19.0632 20.4883C19.0034 20.5884 18.879 20.5948 18.8151 20.5324L18.8081 20.5257C18.7419 20.4583 18.7879 20.5871 18.6142 17.3622L18.5659 16.3863L18.4961 15.378C18.5413 15.3144 20.9344 11.9404 20.7816 12.1557C20.8018 12.219 20.9968 12.8299 20.9765 12.7666C20.9971 12.8309 21.8925 15.6313 21.8369 15.4572C21.9194 15.7181 21.8884 16.0025 21.7488 16.2376Z" fill="#DD8536"/>
<path d="M18.8657 20.5674L10.2648 17.9828C-0.994308 14.7638 2.88709 15.8735 2.04501 15.6328C1.79223 15.5542 1.64724 15.2862 1.72227 15.0319C1.741 14.9681 2.94738 10.8594 2.87301 11.1127C2.93634 11.1309 10.9107 13.4227 10.8369 13.4016L18.5117 15.6076C18.516 15.671 18.6384 17.4598 18.6306 17.3461L18.851 20.5349L18.8657 20.5674Z" fill="#F3A250"/>
<path d="M9.86477 13.1227L9.9825 17.9015L2.04501 15.6328C1.79223 15.5542 1.64724 15.2862 1.72227 15.0319C1.741 14.9681 2.94737 10.8594 2.87301 11.1127L9.86477 13.1227Z" fill="#FFB961"/>
<path d="M3.01543 11.4466L18.0315 15.746C18.3938 15.8492 18.7841 15.7019 18.9862 15.3762L20.7374 12.5872C20.9083 12.3045 20.7684 11.9443 20.4521 11.8586C0.842126 6.64436 7.9465 8.53339 6.34065 8.1064C6.09916 8.03755 5.84053 8.10768 5.66387 8.28908C5.60091 8.35241 2.77117 11.1986 2.91031 11.0587C2.78974 11.1814 2.84037 11.3999 3.01543 11.4466Z" fill="#FFD475"/>
<path d="M20.7352 12.5863C20.6956 12.6496 18.8706 15.5653 18.987 15.3793C18.9522 15.4419 18.9035 15.4906 18.8477 15.5394C18.6388 15.7484 18.3254 15.8249 18.0328 15.7484C17.9695 15.7303 12.6016 14.1955 12.9415 14.2927C12.8776 14.2743 9.66996 13.3505 9.86997 13.4081C8.97288 13.1505 2.60922 11.3263 3.01654 11.4441C2.90508 11.4162 2.84241 11.3187 2.84241 11.2212C2.84241 11.2073 2.84241 11.2003 2.84939 11.1864L2.86329 11.1236C2.87026 11.1167 2.87026 11.1097 2.87723 11.1097C2.8842 11.0889 2.89815 11.0749 2.91205 11.061C2.97516 10.9974 5.72624 8.2253 5.66319 8.28896C5.83731 8.10786 6.10198 8.03823 6.3388 8.10786C12.3869 9.71869 4.24691 7.55371 20.4496 11.8619C20.77 11.9455 20.9093 12.3077 20.7352 12.5863Z" fill="#FFD475"/>
<path d="M4.50892 11.8745C8.9448 13.3209 13.1586 14.4963 17.6498 15.7285C17.9568 15.7999 18.309 15.9777 18.724 15.7228C18.8876 15.6271 19.0077 15.462 19.0875 15.3101C19.1794 15.1527 19.9283 13.8694 19.8843 13.9448L19.2953 14.8189C19.0823 15.0924 18.9433 15.454 18.6556 15.6049C18.2902 15.8041 18.0227 15.6492 17.6981 15.5593L16.6906 15.251C13.0721 14.1978 9.52544 13.1156 4.50892 11.8745Z" fill="white"/>
<g opacity="0.3">
<path d="M3.48161 10.4881C3.50637 10.5365 3.53945 10.5797 3.60061 10.5935L17.0826 14.6035C17.4041 14.6975 17.7635 14.5288 17.9582 14.1728L19.4148 11.5815L6.34034 8.1064C6.09885 8.03755 5.84021 8.10768 5.66356 8.28908L3.48161 10.4881Z" fill="white"/>
</g>
<g opacity="0.5">
<path d="M7.47234 8.40576L13.7316 14.5184L18.0311 15.7468C18.3269 15.8279 18.6377 15.7481 18.8492 15.5389L13.0619 9.89715L7.47234 8.40576Z" fill="white"/>
<path d="M5.45981 8.49308L10.7599 13.6678L12.9403 14.2889L6.70352 8.20288L6.33975 8.1064C6.09826 8.03755 5.83962 8.10768 5.66297 8.28908L5.45981 8.49308Z" fill="white"/>
</g>
<g opacity="0.3">
<path d="M20.7772 12.1483L4.35401 13.4437L4.36098 13.4298C4.29135 13.4507 4.20777 13.4089 4.17988 13.3184L3.2257 11.5005L3.03763 11.1592L2.96103 11.013C3.02414 10.9494 5.72646 8.22603 5.66341 8.28969C5.83753 8.10859 6.1022 8.03896 6.33903 8.10859C14.3411 10.2398 10.4673 9.21175 20.3175 11.8209C20.401 11.8612 20.6586 11.8666 20.7772 12.1483Z" fill="#51383C"/>
</g>
<path d="M2.49614 7.96354L3.00799 9.57033C3.03251 9.63589 4.25196 12.8965 4.17905 12.7016C4.23154 12.8618 4.44829 12.8547 4.48022 12.7025C4.49811 12.6385 5.63908 8.55572 5.56803 8.80995L5.85831 7.84187C5.83137 7.77714 4.9115 5.56767 4.96947 5.70692C4.94252 5.64227 4.29899 4.09875 4.33917 4.19513C4.16747 4.48712 2.54271 7.25018 2.58225 7.18296C2.44425 7.41921 2.41188 7.70342 2.49614 7.96354Z" fill="#DD8536"/>
<path d="M4.35418 12.8206L13.3132 12.195C25.0049 11.5363 20.9744 11.7633 21.8488 11.7141C22.1127 11.6932 22.3131 11.4637 22.296 11.1991C22.2919 11.1344 22.0205 6.85922 22.0372 7.12265C21.976 7.1262 5.98079 8.0498 5.79249 8.06067C5.77345 8.12436 5.26103 9.83836 5.29333 9.73031L4.37562 12.7921L4.35418 12.8206Z" fill="#F3A250"/>
<path d="M14.7744 7.54241L13.6065 12.1779L21.8488 11.7141C22.1127 11.6932 22.3131 11.4637 22.296 11.1991C22.2919 11.1344 22.0205 6.85922 22.0372 7.12265L14.7744 7.54241Z" fill="#FFB961"/>
<path d="M21.8247 7.41813L6.23032 8.30268C5.85419 8.32351 5.50594 8.09379 5.38058 7.7316L4.28709 4.6252C4.18264 4.31182 4.39855 3.99137 4.72588 3.97743C25.0029 3.21289 17.6569 3.48987 19.3173 3.42726C19.5681 3.41332 19.8049 3.53872 19.9372 3.75459C19.9769 3.81781 22.1283 7.24715 22.0127 7.06291C22.1033 7.20923 22.0058 7.41116 21.8247 7.41813Z" fill="#FFD475"/>
<path d="M21.8249 7.41874C12.5231 7.94666 12.727 7.93985 6.23048 8.3033C5.92403 8.31724 5.63844 8.17092 5.47826 7.92028C5.37368 7.78069 5.45174 7.90752 4.28725 4.62581C4.18281 4.31243 4.39872 3.99198 4.72604 3.97804C4.79085 3.97552 5.86701 3.93364 5.79866 3.9363C6.6059 3.90579 20.1835 3.39476 19.3175 3.42787C19.5682 3.41393 19.805 3.53933 19.9374 3.7552C19.9772 3.81873 21.7951 6.71615 21.7552 6.65262L22.0129 7.06352C22.1035 7.20984 22.0059 7.41177 21.8249 7.41874Z" fill="#FFD475"/>
<path d="M20.2735 7.50625C15.6279 7.93949 11.2586 8.15742 6.60635 8.36963C6.29116 8.37158 5.90846 8.46742 5.55975 8.12732C5.34489 7.92651 5.31635 7.68161 5.13741 7.14227L4.81982 6.13733L5.20173 7.11974C5.3492 7.43347 5.40514 7.81683 5.65251 8.02734C5.77383 8.13404 5.92696 8.20265 6.08565 8.21897C6.52153 8.25673 12.7444 7.65931 20.2735 7.50625Z" fill="white"/>
<g opacity="0.3">
<path d="M21.5807 6.38037C21.5458 6.42211 21.5041 6.45697 21.4413 6.45697L7.40712 7.3973C7.07278 7.41813 6.75939 7.17437 6.64793 6.7843L5.79823 3.93568L19.3171 3.42726C19.5678 3.41332 19.8046 3.53872 19.937 3.75459L21.5807 6.38037Z" fill="white"/>
</g>
<g opacity="0.5">
<path d="M18.1479 3.46832L10.6955 8.05127L6.23099 8.302C5.92453 8.31594 5.63895 8.16962 5.47877 7.91898L12.3671 3.69125L18.1479 3.46832Z" fill="white"/>
<path d="M20.091 3.99804L13.7808 7.87753L11.5173 8.00285L18.9418 3.4409L19.3179 3.42696C19.5687 3.41301 19.8055 3.53842 19.9378 3.75429L20.091 3.99804Z" fill="white"/>
</g>
<path d="M19.0263 9.09764C19.593 9.79745 19.5027 9.80627 18.9497 9.17424C18.8429 10.3947 18.6669 10.5723 18.7547 9.16727C18.0997 9.71034 18.0055 9.67765 18.692 9.07673C17.3986 8.97963 17.3439 8.81148 18.7059 8.89563C18.1568 8.2526 18.188 8.137 18.7825 8.81903C18.8955 7.52793 19.0616 7.48771 18.9776 8.83297C19.7092 8.22631 19.6411 8.39994 19.0333 8.91655C20.4217 9.05214 20.3016 9.19337 19.0263 9.09764Z" fill="white"/>
</svg>
