<svg width="24" height="24" viewBox="0 0 24 24" fill="none" xmlns="http://www.w3.org/2000/svg">
<path d="M17.2772 1.1001H6.72281C3.61181 1.1001 1.08984 3.62206 1.08984 6.73307V17.2874C1.08984 20.3984 3.61181 22.9204 6.72281 22.9204H17.2772C20.3882 22.9204 22.9102 20.3984 22.9102 17.2874V6.73307C22.9102 3.62206 20.3882 1.1001 17.2772 1.1001Z" fill="url(#paint0_linear_790_11094)"/>
<path d="M11.9991 4.08423C10.6362 4.08446 9.29751 4.4436 8.11757 5.12554C6.93762 5.80747 5.95809 6.78813 5.27752 7.96886C4.59695 9.14958 4.23934 10.4887 4.24068 11.8516C4.24202 13.2144 4.60226 14.5528 5.28516 15.7322L4.23047 19.7695L8.33438 18.6825C9.37421 19.2394 10.5274 19.5519 11.7061 19.5963C12.8849 19.6406 14.0582 19.4155 15.1369 18.9382C16.2156 18.4609 17.1713 17.744 17.9313 16.8419C18.6913 15.9397 19.2356 14.8762 19.5228 13.7321C19.81 12.588 19.8326 11.3935 19.5888 10.2394C19.345 9.08524 18.8412 8.0019 18.1158 7.07172C17.3905 6.14153 16.4625 5.38899 15.4026 4.87132C14.3427 4.35364 13.1787 4.08446 11.9991 4.08423ZM16.5619 16.4063C15.5201 17.4475 14.1536 18.1012 12.6892 18.2591C11.2247 18.4169 9.75034 18.0693 8.51063 17.2739L6.12656 17.9063L6.73594 15.5775C6.02405 14.5743 5.61374 13.3885 5.55334 12.1598C5.49294 10.9312 5.78498 9.71084 6.39504 8.64263C7.0051 7.57441 7.90777 6.70282 8.99669 6.13054C10.0856 5.55826 11.3154 5.30914 12.5412 5.41253C13.767 5.51592 14.9377 5.9675 15.9154 6.71409C16.8931 7.46067 17.637 8.47114 18.0595 9.62644C18.482 10.7817 18.5655 12.0337 18.3002 13.2349C18.0349 14.4361 17.4317 15.5364 16.5619 16.4063Z" fill="white"/>
<path d="M15.8873 13.8751C15.8877 14.0026 15.8769 14.13 15.855 14.2557C15.8344 14.3831 15.803 14.5086 15.7612 14.6307C15.6651 14.9021 15.1401 15.2344 15.1401 15.2344C14.767 15.4828 14.3212 15.5983 13.8745 15.5626C13.7697 15.5519 13.6657 15.5353 13.5628 15.5129C13.3884 15.474 13.3035 15.4491 13.3035 15.4491C13.2192 15.4243 13.0003 15.3554 13.0003 15.3554C12.7814 15.2869 12.7321 15.2738 12.7321 15.2738C12.3996 15.1739 12.0774 15.0425 11.7698 14.8815C11.0606 14.4961 10.2881 13.8057 10.2881 13.8057C9.8307 13.3991 9.4172 12.9457 9.05433 12.4529C8.86131 12.1644 8.695 11.8589 8.55745 11.5402C8.5387 11.4933 8.44636 11.2829 8.44636 11.2829C8.35261 11.0729 8.3198 10.9918 8.3198 10.9918C8.28605 10.9102 8.22605 10.7415 8.22605 10.7415C8.19181 10.6419 8.16379 10.5403 8.14214 10.4372C8.12489 10.3443 8.11331 10.2504 8.10745 10.156C8.08026 9.66287 8.32542 9.14396 8.32542 9.14396C8.59495 8.58615 8.85651 8.45865 8.85651 8.45865C8.9735 8.40585 9.09412 8.36152 9.21745 8.32599C9.33953 8.28813 9.4652 8.263 9.59245 8.25099C9.63055 8.24726 9.66901 8.2506 9.70589 8.26084C9.80433 8.28756 10.0129 8.65224 10.0129 8.65224C10.0776 8.75068 10.1896 8.93349 10.1896 8.93349C10.3021 9.11537 10.3964 9.26162 10.3964 9.26162C10.4901 9.40927 10.5782 9.53865 10.5782 9.53865C10.5956 9.55927 10.6795 9.66756 10.6795 9.66756C10.7256 9.72581 10.7676 9.78721 10.8051 9.85131C10.8309 9.89772 10.8468 9.94894 10.852 10.0018C10.8576 10.1091 10.7142 10.2783 10.7142 10.2783C10.6167 10.3904 10.5111 10.495 10.3982 10.5915C10.2868 10.686 10.1811 10.7871 10.0818 10.8943C9.93745 11.0527 9.9412 11.1493 9.9412 11.1493C9.94685 11.1903 9.95804 11.2303 9.97448 11.2683C10.0054 11.3391 10.0265 11.3757 10.0265 11.3757C10.0471 11.4118 10.1085 11.4999 10.1085 11.4999C10.17 11.588 10.1756 11.5983 10.1756 11.5983C10.4586 12.0406 10.7954 12.4461 11.1782 12.8054C11.7328 13.3013 12.4907 13.6674 12.4907 13.6674C12.502 13.6721 12.5962 13.7232 12.5962 13.7232C12.69 13.7747 12.7289 13.7911 12.7289 13.7911C12.7673 13.808 12.8414 13.8305 12.8414 13.8305C12.8806 13.8439 12.9218 13.8507 12.9632 13.8507C13.0598 13.8455 13.2014 13.6843 13.2014 13.6843C13.2966 13.5735 13.3852 13.4572 13.4667 13.336C13.5501 13.2133 13.6424 13.0969 13.7428 12.9877C13.8951 12.826 14.0025 12.8199 14.0025 12.8199C14.0554 12.8194 14.108 12.8293 14.1571 12.849C14.2246 12.8799 14.2902 12.9148 14.3535 12.9535C14.4707 13.0247 14.4942 13.0397 14.4942 13.0397C14.6348 13.1129 14.7904 13.1897 14.7904 13.1897C14.9479 13.2671 15.141 13.3585 15.141 13.3585C15.3342 13.4499 15.4392 13.5029 15.4392 13.5029C15.825 13.6697 15.861 13.7644 15.861 13.7644C15.8752 13.7998 15.884 13.8371 15.8873 13.8751Z" fill="white"/>
<defs>
<linearGradient id="paint0_linear_790_11094" x1="12" y1="22.9204" x2="12" y2="1.1001" gradientUnits="userSpaceOnUse">
<stop stop-color="#00D02D"/>
<stop offset="0.25" stop-color="#10D93A"/>
<stop offset="0.75" stop-color="#3AF15D"/>
<stop offset="1" stop-color="#51FE71"/>
</linearGradient>
</defs>
</svg>
