<svg width="12" height="12" viewBox="0 0 12 12" fill="none" xmlns="http://www.w3.org/2000/svg">
<g clip-path="url(#clip0_790_6381)">
<path d="M9.32743 11.6935L6.00097 9.61193L2.67451 11.6935C2.55367 11.7701 2.39778 11.7642 2.28142 11.6797C2.16538 11.5956 2.11215 11.4494 2.14717 11.3103L3.09885 7.50321L0.126691 4.98326C0.0168158 4.89124 -0.0260983 4.74155 0.0181986 4.60526C0.0624954 4.46862 0.185402 4.37283 0.32823 4.36287L4.20746 4.09198L5.67482 0.452414C5.78263 0.186679 6.21932 0.186679 6.32713 0.452414L7.79448 4.09198L11.6737 4.36287C11.8165 4.37283 11.9394 4.46862 11.9837 4.60526C12.028 4.74155 11.9851 4.89124 11.8753 4.98326L8.90307 7.50326L9.85475 11.3104C9.88977 11.4494 9.83657 11.5957 9.7205 11.6798C9.60175 11.766 9.44631 11.768 9.32743 11.6935Z" fill="#FFB961"/>
</g>
<defs>
<clipPath id="clip0_790_6381">
<rect width="12" height="12" fill="white"/>
</clipPath>
</defs>
</svg>
