<svg width="12" height="12" viewBox="0 0 12 12" fill="none" xmlns="http://www.w3.org/2000/svg">
<g clip-path="url(#clip0_790_6393)">
<path d="M9.32548 11.6933L5.99902 9.61175L2.67256 11.6933C2.55171 11.7699 2.39583 11.764 2.27946 11.6796C2.16343 11.5954 2.1102 11.4492 2.14521 11.3101L3.09689 7.50303L0.124738 4.98307C0.0148626 4.89106 -0.0280514 4.74136 0.0162455 4.60507C0.0605423 4.46843 0.183449 4.37264 0.326277 4.36268L4.20551 4.09179L5.67286 0.45223C5.78067 0.186496 6.21736 0.186496 6.32517 0.45223L7.79253 4.09179L11.6718 4.36268C11.8146 4.37264 11.9375 4.46843 11.9818 4.60507C12.0261 4.74136 11.9832 4.89106 11.8733 4.98307L8.90112 7.50307L9.8528 11.3102C9.88782 11.4492 9.83461 11.5955 9.71855 11.6796C9.59979 11.7659 9.44435 11.7678 9.32548 11.6933Z" fill="#FFB961"/>
</g>
<defs>
<clipPath id="clip0_790_6393">
<rect width="12" height="12" fill="white"/>
</clipPath>
</defs>
</svg>
