<svg width="12" height="12" viewBox="0 0 12 12" fill="none" xmlns="http://www.w3.org/2000/svg">
<g clip-path="url(#clip0_790_6389)">
<path d="M9.32646 11.6934L5.99999 9.61181L2.67353 11.6934C2.55269 11.7699 2.39681 11.7641 2.28044 11.6796C2.1644 11.5955 2.11118 11.4493 2.14619 11.3102L3.09787 7.50309L0.125714 4.98313C0.0158392 4.89112 -0.0270749 4.74142 0.017222 4.60513C0.0615189 4.46849 0.184425 4.37271 0.327253 4.36274L4.20649 4.09185L5.67384 0.452291C5.78165 0.186557 6.21834 0.186557 6.32615 0.452291L7.7935 4.09185L11.6727 4.36274C11.8156 4.37271 11.9385 4.46849 11.9828 4.60513C12.0271 4.74142 11.9842 4.89112 11.8743 4.98313L8.9021 7.50313L9.85378 11.3103C9.88879 11.4493 9.83559 11.5956 9.71953 11.6797C9.60077 11.7659 9.44533 11.7679 9.32646 11.6934Z" fill="#FFB961"/>
</g>
<defs>
<clipPath id="clip0_790_6389">
<rect width="12" height="12" fill="white"/>
</clipPath>
</defs>
</svg>
