<svg width="24" height="24" viewBox="0 0 24 24" fill="none" xmlns="http://www.w3.org/2000/svg">
<path d="M22.3999 11.6667C22.7332 11.8667 22.7332 12.1333 22.3999 12.3333L9.53319 19.8667C9.19985 20.0667 8.73319 20.0667 8.39985 19.8667L1.59985 15.8667C1.26652 15.6667 1.26652 15.4 1.59985 15.2L14.5332 7.66666C14.8665 7.46666 15.3332 7.46666 15.6665 7.66666L22.3999 11.6667Z" fill="#F9A83D"/>
<path d="M9.33325 15.1333L9.06659 20C8.79992 20 8.59992 20 8.39992 19.8666L1.59992 15.8666C1.39992 15.8 1.33325 15.6666 1.33325 15.5333C1.33325 15.4666 1.39992 15.4 1.53325 15.3333L5.39992 13.0667L9.33325 15.1333Z" fill="#FFB961"/>
<path d="M22.667 11.9333L21.667 8L9.33368 15.1333L9.06702 19.9333L22.667 11.9333Z" fill="#F9A83D"/>
<path d="M9.33325 15.1333L9.06659 19.9333L1.33325 15.5333V15.4667L2.33325 11.2667L5.46659 13L9.33325 15.1333Z" fill="#FFB961"/>
<path d="M21.4666 7.73333C21.7333 7.86666 21.7333 8.13333 21.4666 8.33333L9.73325 15.1333C9.46659 15.2667 8.99992 15.2667 8.73325 15.1333L2.53325 11.5333C2.26659 11.4 2.26659 11.1333 2.53325 10.9333L14.2666 4.13333C14.5333 3.99999 14.9999 3.99999 15.2666 4.13333L21.4666 7.73333Z" fill="#FFD475"/>
<g opacity="0.5">
<path d="M5.06645 12.1334L8.93312 14C9.13312 14.0667 9.33312 14.0667 9.53312 14L17.5331 9.86669C17.6665 9.80002 17.5998 9.66669 17.4665 9.66669C12.8665 10.8 8.59979 11.6667 5.13312 11.8667C4.99979 11.8667 4.93312 12.0667 5.06645 12.1334Z" fill="#FFB961"/>
</g>
<g opacity="0.4">
<path d="M18.4664 6.4C18.5331 6.46667 16.3331 6.26667 16.1998 6.26667C13.2664 6.06667 10.0664 7.93333 6.93311 8.73333L14.5998 4.8C14.7331 4.73333 14.8664 4.73333 14.9998 4.8C15.4664 5 17.8664 6.13333 18.4664 6.4Z" fill="white"/>
</g>
<g opacity="0.5">
<path d="M19.9999 9.20001C16.7999 11.3333 13.2666 13.4 10.1999 15.0667C9.86659 15.2667 9.59992 15.6 9.53325 16L9.13325 18.6667L9.06659 16.0667C9.06659 15.6 8.79992 15.2 8.39992 15C7.66659 14.6 6.99992 14.2 6.26659 13.8C5.26659 13.2667 4.33325 12.6667 3.33325 12.0667C4.39992 12.5333 5.39992 12.9333 6.39992 13.4667C7.13325 13.8 7.93325 14.2 8.66659 14.5333C9.06659 14.7333 9.53325 14.7333 9.93325 14.4667C13.9999 12.1333 17.7999 10.2 19.9999 9.20001Z" fill="white"/>
</g>
<g opacity="0.4">
<path d="M21.9998 10.7333L21.5331 8.99998C21.5331 8.86665 21.3998 8.86665 21.3331 8.93332L19.8665 9.93332C19.7998 9.99998 19.8665 10.0667 19.9331 10.0667C20.7998 9.93332 21.4665 10.2 21.9331 10.8666C21.9998 10.8 22.0665 10.8 21.9998 10.7333Z" fill="white"/>
</g>
<g opacity="0.4">
<path d="M4.33318 13.0667L2.79985 12.1333C2.73318 12.0667 2.59985 12.1333 2.59985 12.2L2.13318 14C2.13318 14.0667 2.19985 14.1333 2.26651 14.0667C2.79985 13.4 3.46651 13.0667 4.26651 13.2C4.33318 13.2 4.33318 13.1333 4.33318 13.0667Z" fill="white"/>
</g>
<path d="M10.0004 15.4667C9.86702 15.4667 9.80035 15.6 9.86702 15.7333C10.867 16.9333 10.867 17.0667 9.73368 15.8667C9.66702 15.8 9.46702 15.8 9.46702 15.9333C9.33368 17.2667 9.20035 18.4667 9.13368 18.4667C9.06702 18.4667 9.06702 17.2667 9.06702 15.9333C9.06702 15.8 8.93368 15.7334 8.80035 15.8C7.53368 16.8 7.53368 16.8 8.66702 15.6667C8.73368 15.6 8.73368 15.4 8.60035 15.4C7.26702 15.2667 6.06702 15.1333 6.06702 15.0667C6.06702 15 7.26702 15 8.60035 15C8.73368 15 8.80035 14.8667 8.73368 14.7333C8.33368 14.2 7.93368 13.8 8.00035 13.7334C8.06702 13.7334 8.40035 14.0667 8.86702 14.5333C8.93368 14.6 9.13368 14.6 9.13368 14.4667C9.26702 13.1334 9.40035 11.9333 9.46702 11.9333C9.53368 11.9333 9.53368 13.1334 9.53368 14.4667C9.53368 14.6 9.66702 14.6667 9.80035 14.6C11.067 13.5333 11.067 13.6667 9.93368 14.7333C9.86702 14.8 9.86702 15 10.0004 15C13.4004 15.3333 13.4004 15.4667 10.0004 15.4667Z" fill="white"/>
<g opacity="0.4">
<path d="M14.2665 16.6L9.99985 19.0667C9.79985 19.2 9.59985 19 9.59985 18.8L9.79985 16.8667C9.79985 16.8 9.93319 16.7334 9.93319 16.8C10.4665 17.4667 12.5999 17 14.1999 16.4C14.2665 16.4667 14.3332 16.5334 14.2665 16.6Z" fill="white"/>
</g>
<g opacity="0.4">
<path d="M6.13321 18L8.39987 19.2667C8.53321 19.3333 8.59987 19.2667 8.59987 19.0667V16.9333C8.59987 16.8667 8.46654 16.8 8.46654 16.8667C8.06654 17.6 7.39987 18 6.19987 17.8C6.13321 17.8667 6.06654 17.9333 6.13321 18Z" fill="white"/>
</g>
</svg>
