<svg width="24" height="24" viewBox="0 0 24 24" fill="none" xmlns="http://www.w3.org/2000/svg">
<path d="M18.75 1.5H5.25C3.18237 1.5 1.5 3.18237 1.5 5.25V12V18.75C1.5 20.8176 3.18237 22.5 5.25 22.5H18.75C20.8176 22.5 22.5 20.8176 22.5 18.75V12V5.25C22.5 3.18237 20.8176 1.5 18.75 1.5ZM21 18.75C21 19.9907 19.9907 21 18.75 21H12.75V12.75H21V18.75ZM3 5.25C3 4.00928 4.00928 3 5.25 3H11.25V11.25H3V5.25ZM21 11.25H12.75V3H18.75C19.9907 3 21 4.00928 21 5.25V11.25ZM3 12.75H11.25V21H5.25C4.00928 21 3 19.9907 3 18.75V12.75Z" fill="#1E6EF4" stroke="white" stroke-width="0.4"/>
<path d="M8.625 6.375H7.875V5.625C7.875 5.21045 7.53918 4.875 7.125 4.875C6.71082 4.875 6.375 5.21045 6.375 5.625V6.375H5.625C5.21082 6.375 4.875 6.71045 4.875 7.125C4.875 7.53955 5.21082 7.875 5.625 7.875H6.375V8.625C6.375 9.03955 6.71082 9.375 7.125 9.375C7.53918 9.375 7.875 9.03955 7.875 8.625V7.875H8.625C9.03918 7.875 9.375 7.53955 9.375 7.125C9.375 6.71045 9.03918 6.375 8.625 6.375Z" fill="#1E6EF4" stroke="white" stroke-width="0.4"/>
<path d="M5.53418 18.4658C5.68066 18.6123 5.87256 18.6855 6.06445 18.6855C6.25635 18.6855 6.44824 18.6123 6.59473 18.4658L7.125 17.9355L7.65527 18.4658C7.80176 18.6123 7.99365 18.6855 8.18555 18.6855C8.37744 18.6855 8.56934 18.6123 8.71582 18.4658C9.00879 18.1729 9.00879 17.6982 8.71582 17.4053L8.18555 16.875L8.71582 16.3447C9.00879 16.0518 9.00879 15.5771 8.71582 15.2842C8.42285 14.9912 7.94824 14.9912 7.65527 15.2842L7.125 15.8145L6.59473 15.2842C6.30176 14.9912 5.82715 14.9912 5.53418 15.2842C5.24121 15.5771 5.24121 16.0518 5.53418 16.3447L6.06445 16.875L5.53418 17.4053C5.24121 17.6982 5.24121 18.1729 5.53418 18.4658Z" fill="#1E6EF4" stroke="white" stroke-width="0.4"/>
<path d="M18.375 6.375H15.375C14.9608 6.375 14.625 6.71045 14.625 7.125C14.625 7.53955 14.9608 7.875 15.375 7.875H18.375C18.7892 7.875 19.125 7.53955 19.125 7.125C19.125 6.71045 18.7892 6.375 18.375 6.375Z" fill="#1E6EF4" stroke="white" stroke-width="0.4"/>
<path d="M15.375 16.5H18.375C18.7892 16.5 19.125 16.1646 19.125 15.75C19.125 15.3354 18.7892 15 18.375 15H15.375C14.9608 15 14.625 15.3354 14.625 15.75C14.625 16.1646 14.9608 16.5 15.375 16.5Z" fill="#1E6EF4" stroke="white" stroke-width="0.4"/>
<path d="M15.375 18.75H18.375C18.7892 18.75 19.125 18.4146 19.125 18C19.125 17.5854 18.7892 17.25 18.375 17.25H15.375C14.9608 17.25 14.625 17.5854 14.625 18C14.625 18.4146 14.9608 18.75 15.375 18.75Z" fill="#1E6EF4" stroke="white" stroke-width="0.4"/>
</svg>
