<svg width="32" height="32" viewBox="0 0 32 32" fill="none" xmlns="http://www.w3.org/2000/svg">
<path fill-rule="evenodd" clip-rule="evenodd" d="M16.5609 16.8634C18.7087 17.195 18.999 18.4659 19.1727 19.6487L19.2016 19.8504L19.2213 19.9876L19.3259 20.6837C19.5305 22.0128 19.9574 24.7716 19.9574 26.2112C19.9574 26.571 19.9257 26.8471 19.8679 26.9989C19.7715 27.2327 19.4907 27.4571 19.103 27.6442C18.1648 27.8751 17.1842 28 16.1741 28C16.0671 28 15.9619 27.9948 15.8563 27.9916C15.4481 27.8757 15.1413 27.6821 14.9788 27.4176C14.4883 26.6191 14.4588 24.8402 14.4489 22.7614L14.4478 22.5202L14.4438 21.8971C14.4279 19.6964 14.4141 17.7989 15.2137 17.118C15.5234 16.8561 15.9634 16.7694 16.5609 16.8634ZM11.878 21.6548C12.3435 21.6286 12.6428 23.918 12.7029 25.654C12.7451 26.8627 12.6182 27.3598 12.4155 27.5383C12.1861 27.4618 11.9607 27.3789 11.7385 27.2889C11.5903 27.0196 11.477 26.596 11.4051 26.0411C11.1854 24.2974 11.3762 21.6856 11.878 21.6548ZM23.5469 25.076C23.5179 25.235 23.4769 25.3579 23.4264 25.4615C23.0285 25.7809 22.6102 26.074 22.1725 26.3378C22.0331 26.3613 21.9093 26.3449 21.8487 26.2426C21.2686 25.2233 21.0509 22.0256 21.6123 21.7473C22.3442 21.3937 23.6554 24.5232 23.5469 25.076ZM16.0008 3.99995C22.5361 3.99995 27.8507 9.17542 27.9972 15.6154L28.0002 15.838V15.9409C27.9882 18.85 26.9177 21.5114 25.154 23.5714C25.09 23.5393 24.9733 23.4342 24.7619 23.1179C24.5431 22.8 22.6564 19.8964 22.6564 16.5685C22.6564 15.9154 23.5978 14.8952 24.4308 13.9997C25.0536 13.3258 25.6434 12.6902 25.8606 12.1906C26.1373 11.546 25.9437 11.0959 25.6376 10.9433C25.3605 10.8077 24.9444 10.9066 24.6525 11.4252C24.1734 12.2644 24.0198 12.4213 23.321 12.9828C22.6333 13.544 21.54 14.109 21.54 13.3777C21.54 12.9828 22.149 12.0885 22.4498 11.4616C22.757 10.8278 22.4259 10.3689 21.7915 10.3689C20.5458 10.3689 19.719 11.9557 19.719 12.5055C19.719 13.0548 19.9854 13.133 19.9854 13.7727C19.9854 14.4172 18.6187 15.2531 17.3313 15.2531C16.0917 15.2531 15.3729 15.0022 15.0751 14.2954L15.0371 14.1962L14.951 13.9415C14.6456 13.0489 14.4265 12.4016 14.0451 11.7251C13.8426 11.3674 13.5302 11.1193 13.26 10.9011C12.9068 10.6268 12.7236 10.3742 12.6853 10.1858C12.6501 9.99894 12.6311 9.64673 13.2348 8.83483C13.8373 8.02756 13.9218 7.4177 13.6203 7.10303C13.511 6.99108 13.3247 6.91936 13.0854 6.91936C12.6623 6.91936 12.0743 7.14357 11.4683 7.75944C10.5264 8.72465 11.0611 9.64107 11.0611 10.0434C11.0611 10.4454 10.8886 10.6728 10.3233 11.2198C9.75385 11.7691 9.55733 12.2401 9.49221 14.1331C9.46726 15.1085 9.29548 15.67 9.14128 16.1678C9.00803 16.6042 8.88549 17.0144 8.87887 17.6071C8.86831 18.264 8.97765 18.6873 9.10524 19.1757C9.23051 19.6271 9.36356 20.1444 9.44881 21.0097C9.58439 22.3491 9.53725 23.4805 9.29074 24.637L9.22495 24.9267L9.20958 25.0099C9.1591 25.2132 9.09909 25.46 9.01798 25.5525C5.98081 23.3953 4.00024 19.8722 4.00024 15.8898C4.00024 9.32378 9.37287 3.99995 16.0008 3.99995Z" fill="#F14635"/>
</svg>
