<svg width="32" height="32" viewBox="0 0 32 32" fill="none" xmlns="http://www.w3.org/2000/svg">
<path d="M18.9937 19.0762C19.0679 20.0275 18.6983 20.9046 17.9593 21.5631C17.2212 22.1483 16.3339 22.4411 15.448 22.4411C14.8568 22.4411 14.192 22.2947 13.6746 21.9291C13.3056 21.6363 13.0835 21.1243 13.0835 20.6123C13.0835 19.4423 13.8225 18.8571 15.2259 18.8571H18.9937V19.0762ZM24.0916 6.56745C23.1314 5.6894 22.0234 5.03189 20.767 4.66537C19.3636 4.22707 17.8856 4.0079 16.4081 4.0079C14.4136 3.93467 12.4191 4.37394 10.6458 5.17787C8.87246 6.05592 7.2475 7.22638 5.84413 8.61645L9.61194 13.5901C10.4984 12.7852 11.4585 12.1278 12.4196 11.5421C13.3797 11.0301 14.4141 10.8104 15.4484 10.8104C16.4086 10.7372 17.4429 11.0301 18.1819 11.6885C18.6988 12.2737 18.9941 13.0049 18.9941 13.7365V14.1021H14.1183C11.3116 14.1021 9.0213 14.6873 7.39586 15.8582C5.76995 17.0277 4.80981 18.9303 4.95723 20.9046C4.95723 21.8559 5.10513 22.7339 5.47416 23.6116C5.76995 24.4887 6.28735 25.2203 6.95218 25.8787C7.69024 26.5372 8.50343 27.1224 9.46357 27.4152C10.5716 27.7813 11.7538 28 12.936 28C14.2653 28 15.5216 27.7813 16.7776 27.3425C17.8856 26.9765 18.8458 26.3913 19.7322 25.5864V27.4157H27.0462V14.1021C27.1194 12.5665 26.8241 11.1032 26.3072 9.63999C25.7903 8.54321 25.0513 7.44599 24.0907 6.56794" fill="#53C95A"/>
</svg>
