<svg width="24" height="24" viewBox="0 0 24 24" fill="none" xmlns="http://www.w3.org/2000/svg">
<path d="M24 12C24 18.6274 18.6274 24 12 24C5.37258 24 0 18.6274 0 12C0 5.3726 5.37258 1.52588e-05 12 1.52588e-05C18.6274 1.52588e-05 24 5.3726 24 12ZM3.6 12C3.6 16.6392 7.36081 20.4 12 20.4C16.6392 20.4 20.4 16.6392 20.4 12C20.4 7.36082 16.6392 3.60002 12 3.60002C7.36081 3.60002 3.6 7.36082 3.6 12Z" fill="#F2F2F2"/>
<path d="M22.2 12C23.1941 12 24.0138 11.1897 23.8653 10.2067C23.5438 8.08001 22.6546 6.06695 21.2761 4.3873C19.5149 2.24122 17.064 0.772214 14.3411 0.230592C11.6182 -0.31103 8.79169 0.108238 6.34324 1.41696C3.89479 2.72568 1.97588 4.84288 0.913446 7.40781C-0.148984 9.97275 -0.289191 12.8267 0.516716 15.4834C1.32262 18.1401 3.02478 20.4352 5.33316 21.9776C7.64153 23.5201 10.4133 24.2144 13.1762 23.9422C15.3386 23.7293 17.3909 22.9346 19.122 21.6581C19.9221 21.0681 19.9154 19.9154 19.2125 19.2125V19.2125C18.5095 18.5096 17.3771 18.5296 16.5407 19.067C15.4285 19.7816 14.1558 20.2283 12.8233 20.3596C10.8893 20.5501 8.94907 20.064 7.33321 18.9844C5.71734 17.9047 4.52584 16.2981 3.9617 14.4384C3.39757 12.5787 3.49571 10.5809 4.23941 8.78547C4.98311 6.99002 6.32636 5.50798 8.04027 4.59188C9.75418 3.67577 11.7327 3.38228 13.6388 3.76142C15.5448 4.14055 17.2604 5.16886 18.4933 6.67111C19.3427 7.70611 19.9267 8.92196 20.2079 10.2137C20.4193 11.1851 21.2059 12 22.2 12V12Z" fill="#5E5CE6"/>
</svg>
