<svg width="24" height="24" viewBox="0 0 24 24" fill="none" xmlns="http://www.w3.org/2000/svg">
<rect width="24" height="24" rx="12" fill="#F6F8FF"/>
<path d="M13.0458 8.52887C12.7705 8.80402 12.6328 9.13712 12.6328 9.52798C12.6328 9.91891 12.7705 10.2528 13.0458 10.5296C13.3212 10.8064 13.6524 10.9448 14.0396 10.9448C14.4267 10.9448 14.758 10.8064 15.0334 10.5296C15.3088 10.2528 15.4464 9.91891 15.4464 9.52798C15.4464 9.13712 15.3088 8.80402 15.0334 8.52887C14.758 8.25376 14.4267 8.11615 14.0396 8.11615C13.6524 8.11615 13.3212 8.25376 13.0458 8.52887Z" fill="#212121"/>
<path d="M13.0458 8.52887C12.7705 8.80402 12.6328 9.13712 12.6328 9.52798C12.6328 9.91891 12.7705 10.2528 13.0458 10.5296C13.3212 10.8064 13.6524 10.9448 14.0396 10.9448C14.4267 10.9448 14.758 10.8064 15.0334 10.5296C15.3088 10.2528 15.4464 9.91891 15.4464 9.52798C15.4464 9.13712 15.3088 8.80402 15.0334 8.52887C14.758 8.25376 14.4267 8.11615 14.0396 8.11615C13.6524 8.11615 13.3212 8.25376 13.0458 8.52887Z" fill="#5E5CE6"/>
<path d="M10.4641 15.1886C10.7394 14.9134 10.8771 14.5804 10.8771 14.1895C10.8771 13.7986 10.7394 13.4647 10.4641 13.1879C10.1887 12.911 9.85752 12.7726 9.47029 12.7726C9.08316 12.7726 8.75183 12.911 8.47651 13.1879C8.20114 13.4647 8.06348 13.7986 8.06348 14.1895C8.06348 14.5804 8.20114 14.9134 8.47651 15.1886C8.75183 15.4637 9.08316 15.6013 9.47029 15.6013C9.85752 15.6013 10.1887 15.4637 10.4641 15.1886Z" fill="#212121"/>
<path d="M10.4641 15.1886C10.7394 14.9134 10.8771 14.5804 10.8771 14.1895C10.8771 13.7986 10.7394 13.4647 10.4641 13.1879C10.1887 12.911 9.85752 12.7726 9.47029 12.7726C9.08316 12.7726 8.75183 12.911 8.47651 13.1879C8.20114 13.4647 8.06348 13.7986 8.06348 14.1895C8.06348 14.5804 8.20114 14.9134 8.47651 15.1886C8.75183 15.4637 9.08316 15.6013 9.47029 15.6013C9.85752 15.6013 10.1887 15.4637 10.4641 15.1886Z" fill="#5E5CE6"/>
<path d="M16.4921 16.1693C16.2402 16.5134 15.9167 16.8324 15.5305 17.1183C15.0098 17.5043 14.3854 17.8288 13.6217 18.1111C12.5331 18.5133 11.3661 18.7172 10.152 18.7172C9.18727 18.7172 8.20618 18.5903 7.22258 18.339C7.05046 18.2949 7.06554 18.0454 7.24201 18.0208C8.37824 17.8642 9.45797 17.5232 10.4202 17.0136C11.466 16.4585 12.2317 15.7753 12.6946 14.9827C13.1104 14.2712 13.1474 13.5822 12.8001 13.0423C12.471 12.5315 11.8473 12.2454 11.3397 12.054C11.1582 11.9852 10.9748 11.9208 10.7908 11.8589H10.7902C10.4591 11.7452 10.1231 11.648 9.79589 11.5539C9.36064 11.4289 8.91027 11.2995 8.48755 11.134C7.87261 10.8934 7.06304 10.464 6.69747 9.78397C6.34763 9.13417 6.4676 8.29813 7.0178 7.54795C7.27026 7.20376 7.59376 6.88491 7.98007 6.59952C8.50077 6.21366 9.12511 5.8891 9.88885 5.60624C10.9773 5.20396 12.1444 5 13.3579 5C14.3233 5 15.3044 5.12696 16.288 5.37825C16.46 5.42246 16.445 5.6725 16.2685 5.69652C15.1323 5.85309 14.0519 6.19408 13.0903 6.70431C12.0445 7.25937 11.2788 7.942 10.816 8.73445C10.4001 9.44614 10.3631 10.1357 10.7104 10.6756C11.0396 11.1864 11.6632 11.4718 12.1707 11.6638C12.3523 11.732 12.5357 11.7964 12.7197 11.8589C13.0507 11.972 13.3873 12.0699 13.7146 12.164C14.1499 12.289 14.6003 12.4184 15.0224 12.5833C15.6372 12.8238 16.4475 13.2532 16.8131 13.9332C17.1629 14.5837 17.0429 15.4192 16.4921 16.1693Z" fill="#212121"/>
<path d="M16.4921 16.1693C16.2402 16.5134 15.9167 16.8324 15.5305 17.1183C15.0098 17.5043 14.3854 17.8288 13.6217 18.1111C12.5331 18.5133 11.3661 18.7172 10.152 18.7172C9.18727 18.7172 8.20618 18.5903 7.22258 18.339C7.05046 18.2949 7.06554 18.0454 7.24201 18.0208C8.37824 17.8642 9.45797 17.5232 10.4202 17.0136C11.466 16.4585 12.2317 15.7753 12.6946 14.9827C13.1104 14.2712 13.1474 13.5822 12.8001 13.0423C12.471 12.5315 11.8473 12.2454 11.3397 12.054C11.1582 11.9852 10.9748 11.9208 10.7908 11.8589H10.7902C10.4591 11.7452 10.1231 11.648 9.79589 11.5539C9.36064 11.4289 8.91027 11.2995 8.48755 11.134C7.87261 10.8934 7.06304 10.464 6.69747 9.78397C6.34763 9.13417 6.4676 8.29813 7.0178 7.54795C7.27026 7.20376 7.59376 6.88491 7.98007 6.59952C8.50077 6.21366 9.12511 5.8891 9.88885 5.60624C10.9773 5.20396 12.1444 5 13.3579 5C14.3233 5 15.3044 5.12696 16.288 5.37825C16.46 5.42246 16.445 5.6725 16.2685 5.69652C15.1323 5.85309 14.0519 6.19408 13.0903 6.70431C12.0445 7.25937 11.2788 7.942 10.816 8.73445C10.4001 9.44614 10.3631 10.1357 10.7104 10.6756C11.0396 11.1864 11.6632 11.4718 12.1707 11.6638C12.3523 11.732 12.5357 11.7964 12.7197 11.8589C13.0507 11.972 13.3873 12.0699 13.7146 12.164C14.1499 12.289 14.6003 12.4184 15.0224 12.5833C15.6372 12.8238 16.4475 13.2532 16.8131 13.9332C17.1629 14.5837 17.0429 15.4192 16.4921 16.1693Z" fill="#5E5CE6"/>
</svg>
