<svg width="32" height="32" viewBox="0 0 32 32" fill="none" xmlns="http://www.w3.org/2000/svg">
<path fill-rule="evenodd" clip-rule="evenodd" d="M23.5087 4V8.28714H20.4901C17.0381 8.28714 14.1062 10.5664 13.1274 13.7014C11.1698 14.8239 9.559 16.4803 8.49121 18.4745V15.9989C8.49121 9.3823 13.8735 4 20.4901 4H23.5087ZM20.4902 17.8195V13.5347C20.011 13.5347 19.541 13.5621 19.0778 13.6168C16.6958 13.8975 14.5238 14.8785 12.7761 16.3502C11.0375 17.8104 9.72099 19.7566 9.02967 21.9766C8.68058 23.1014 8.49121 24.2947 8.49121 25.5336V28H12.7761V25.5336C12.7761 21.2807 16.2395 17.8195 20.4902 17.8195Z" fill="#A31551"/>
</svg>
