<svg width="32" height="32" viewBox="0 0 32 32" fill="none" xmlns="http://www.w3.org/2000/svg">
<path d="M15.6329 6.24485C15.6017 6.24485 15.5794 6.24485 15.5593 6.24708H14.6169L15.1427 8.58648C15.2497 9.06104 15.6707 9.39747 16.1564 9.39747H24.0369L22.5976 15.6314H13.3982C13.3982 15.6314 11.8765 9.49104 11.2281 6.24485H7.50513H7.44943C7.44943 6.24485 7.44943 6.24485 7.44943 6.24708H5.33506C4.96744 6.24708 4.65106 6.50107 4.57086 6.85978L4.00049 9.39747H8.71939L10.9028 18.8553H23.344C24.3666 18.8553 25.2511 18.1513 25.4806 17.1554L28.0005 6.24485C25.0462 6.21366 17.8854 6.24485 15.6351 6.24485H15.6329Z" fill="white"/>
<path d="M12.7946 21.3773C11.7497 21.3773 10.9031 22.224 10.9031 23.2689C10.9031 24.3138 11.7497 25.1605 12.7946 25.1605C13.8396 25.1605 14.6862 24.3138 14.6862 23.2689C14.6862 22.224 13.8396 21.3773 12.7946 21.3773Z" fill="white"/>
<path d="M23.1992 21.3773C22.1543 21.3773 21.3076 22.224 21.3076 23.2689C21.3076 24.3138 22.1543 25.1605 23.1992 25.1605C24.2441 25.1605 25.0908 24.3138 25.0908 23.2689C25.0908 22.224 24.2441 21.3773 23.1992 21.3773Z" fill="white"/>
</svg>
