<svg width="24" height="12" viewBox="0 0 24 12" fill="none" xmlns="http://www.w3.org/2000/svg">
<g clip-path="url(#clip0_790_6170)">
<mask id="mask0_790_6170" style="mask-type:luminance" maskUnits="userSpaceOnUse" x="-101" y="-28" width="228" height="229">
<path d="M-100.854 200.194H126.394V-27.0539H-100.854V200.194Z" fill="white"/>
</mask>
<g mask="url(#mask0_790_6170)">
<path d="M12.4541 10.1482C11.9903 10.1172 11.4555 10.0359 11.0336 9.91376C10.9546 9.89085 10.6274 9.7706 10.5442 9.73243C9.07563 9.05214 8.05253 7.56713 8.05253 5.84428C8.05253 3.48123 9.97503 1.55644 12.3396 1.55644C14.6832 1.55644 16.5927 3.4484 16.6255 5.78473H18.1743C18.1415 2.5948 15.5375 0.00957811 12.3396 0.00957811C9.12258 0.00957811 6.50414 2.62649 6.50414 5.84428C6.50414 8.06264 7.75171 9.99202 9.57839 10.9777C9.90823 11.1522 10.3816 11.332 10.5423 11.3812C11.063 11.5362 11.7021 11.6393 12.2709 11.6824C12.4641 11.6969 13.1386 11.7046 13.3352 11.7053H24.0006V10.1627H13.3532C13.2115 10.1627 12.5927 10.1573 12.4541 10.1482ZM13.3532 7.72594C13.2405 7.72594 12.6515 7.72212 12.5427 7.71296C12.3583 7.69731 12.0911 7.66982 11.9193 7.6305C11.7254 7.57858 11.5433 7.50987 11.4612 7.46482C10.8859 7.15369 10.4938 6.54518 10.4938 5.84428C10.4938 4.82462 11.3196 3.99774 12.3396 3.99774C13.3383 3.99774 14.1503 4.79217 14.1827 5.78473H15.6708C15.6395 3.9714 14.1613 2.51006 12.3396 2.51006C10.4977 2.51006 9.00462 4.00271 9.00462 5.84428C9.00462 7.143 9.74904 8.26459 10.8332 8.81393C11 8.91166 11.3138 9.01397 11.4032 9.03726C11.7093 9.11781 12.1205 9.17278 12.4541 9.19721C12.5774 9.20752 13.1814 9.2121 13.3089 9.21286V9.21515H24.0002V7.72594H13.3532ZM5.54976 11.6996H3.99069V1.55987H1.71239V0.000415989H5.54976V11.6996ZM0.000610352 2.33903V3.83855H1.71239V11.6996H3.21038V2.33903H0.000610352Z" fill="#D91920"/>
<path d="M21.2459 0.109195C20.6844 0.109195 20.2186 0.55699 20.2186 1.11893C20.2186 1.68087 20.6844 2.14661 21.2459 2.14661C21.8247 2.14661 22.2725 1.68087 22.2725 1.11893C22.2725 0.55699 21.8247 0.109195 21.2459 0.109195ZM21.2459 1.98093C20.7821 1.98093 20.3824 1.61635 20.3824 1.11893C20.3824 0.646702 20.7821 0.272966 21.2459 0.272966C21.7094 0.272966 22.1072 0.646702 22.1072 1.11893C22.1072 1.61635 21.7094 1.98093 21.2459 1.98093Z" fill="#D91920"/>
<path d="M21.6368 1.39514C21.6368 1.28176 21.62 1.1764 21.4903 1.13479C21.6529 1.07829 21.6689 0.971777 21.6689 0.907261C21.6689 0.646525 21.4322 0.613312 21.3349 0.613312H20.8871V1.62305H21.0738V1.20885H21.2207C21.4322 1.20885 21.4498 1.30619 21.4498 1.39514C21.4498 1.56731 21.4498 1.59976 21.4903 1.62305H21.6773C21.6368 1.5822 21.6529 1.55051 21.6368 1.39514ZM21.294 1.06149H21.0738V0.74349H21.2623C21.3929 0.74349 21.4815 0.784719 21.4815 0.907261C21.4815 0.971777 21.4498 1.06149 21.294 1.06149Z" fill="#D91920"/>
</g>
</g>
<defs>
<clipPath id="clip0_790_6170">
<rect width="24" height="11.7049" fill="white"/>
</clipPath>
</defs>
</svg>
