<svg width="20" height="20" viewBox="0 0 20 20" fill="none" xmlns="http://www.w3.org/2000/svg">
<g clip-path="url(#clip0_790_9257)">
<path d="M4.77093 17.5698H14.9244C16.6822 17.5698 17.5527 16.6992 17.5527 14.9749V4.75446C17.5527 3.03013 16.6822 2.15959 14.9244 2.15959H4.77093C3.02149 2.15959 2.14258 3.02176 2.14258 4.75446V14.9749C2.14258 16.7076 3.02149 17.5698 4.77093 17.5698Z" fill="#1E6EF4"/>
<path d="M6.47809 10.5887C5.9926 10.5887 5.64941 10.3292 5.64941 9.86885C5.64941 9.40013 5.96749 9.13225 6.47809 9.13225H13.2415C13.7437 9.13225 14.0618 9.40013 14.0618 9.86885C14.0618 10.3292 13.727 10.5887 13.2415 10.5887H6.47809Z" fill="white"/>
</g>
<defs>
<clipPath id="clip0_790_9257">
<rect width="15.4101" height="15.4269" fill="white" transform="translate(2.14258 2.14285)"/>
</clipPath>
</defs>
</svg>
