<svg width="16" height="16" viewBox="0 0 16 16" fill="none" xmlns="http://www.w3.org/2000/svg">
<g clip-path="url(#clip0_5475_8103)">
<path d="M2.62835 15.4269H12.7818C14.5396 15.4269 15.4101 14.5564 15.4101 12.832V2.61161C15.4101 0.887276 14.5396 0.0167389 12.7818 0.0167389H2.62835C0.878907 0.0167389 0 0.878905 0 2.61161V12.832C0 14.5647 0.878907 15.4269 2.62835 15.4269Z" fill="#1E6EF4"/>
<path d="M4.33551 8.44585C3.85002 8.44585 3.50684 8.18635 3.50684 7.72599C3.50684 7.25728 3.82491 6.9894 4.33551 6.9894H11.0989C11.6012 6.9894 11.9192 7.25728 11.9192 7.72599C11.9192 8.18635 11.5844 8.44585 11.0989 8.44585H4.33551Z" fill="white"/>
</g>
<defs>
<clipPath id="clip0_5475_8103">
<rect width="15.4101" height="15.4269" fill="white"/>
</clipPath>
</defs>
</svg>
