<svg width="20" height="20" viewBox="0 0 20 20" fill="none" xmlns="http://www.w3.org/2000/svg">
<path d="M4.77093 17.5698H14.9244C16.6822 17.5698 17.5527 16.6992 17.5527 14.9749V4.75447C17.5527 3.03014 16.6822 2.15961 14.9244 2.15961H4.77093C3.02149 2.15961 2.14258 3.02177 2.14258 4.75447V14.9749C2.14258 16.7076 3.02149 17.5698 4.77093 17.5698ZM4.78766 16.2221C3.95061 16.2221 3.49024 15.7784 3.49024 14.9079V4.82144C3.49024 3.9509 3.95061 3.50727 4.78766 3.50727H14.9076C15.7363 3.50727 16.2051 3.9509 16.2051 4.82144V14.9079C16.2051 15.7784 15.7363 16.2221 14.9076 16.2221H4.78766Z" fill="black" fill-opacity="0.25"/>
</svg>
