<svg width="20" height="20" viewBox="0 0 20 20" fill="none" xmlns="http://www.w3.org/2000/svg">
<path d="M4.77093 17.5698H14.9244C16.6822 17.5698 17.5527 16.6992 17.5527 14.9749V4.75446C17.5527 3.03013 16.6822 2.15959 14.9244 2.15959H4.77093C3.02149 2.15959 2.14258 3.02176 2.14258 4.75446V14.9749C2.14258 16.7076 3.02149 17.5698 4.77093 17.5698Z" fill="#1E6EF4"/>
<path d="M8.91448 13.9453C8.62988 13.9453 8.39551 13.8281 8.17788 13.5351L6.07687 10.957C5.95131 10.7896 5.87598 10.6055 5.87598 10.4129C5.87598 10.0363 6.16895 9.72657 6.55399 9.72657C6.78837 9.72657 6.97252 9.80192 7.18178 10.0781L8.881 12.2712L12.4552 6.52901C12.6143 6.2779 12.8319 6.14397 13.0579 6.14397C13.4179 6.14397 13.761 6.39508 13.761 6.7885C13.761 6.97265 13.6606 7.16517 13.5518 7.34095L9.61758 13.5351C9.44186 13.8114 9.19908 13.9453 8.91448 13.9453Z" fill="white"/>
</svg>
