<svg width="15" height="19" viewBox="0 0 15 19" fill="none" xmlns="http://www.w3.org/2000/svg">
<path d="M7.19238 8.51111C7.41211 8.51111 7.5791 8.4408 7.71094 8.30896L11.1299 4.86365C11.2881 4.70544 11.3584 4.52966 11.3584 4.32751C11.3584 4.13416 11.2793 3.9408 11.1299 3.79138L7.71094 0.319702C7.5791 0.179077 7.41211 0.0999756 7.19238 0.0999756C6.79688 0.0999756 6.48926 0.425171 6.48926 0.838257C6.48926 1.02283 6.55957 1.19861 6.68262 1.34802L8.82715 3.43982C8.37891 3.36072 7.92188 3.32556 7.47363 3.32556C3.37793 3.32556 0.0996094 6.59509 0.0996094 10.6908C0.0996094 14.7865 3.38672 18.0824 7.48242 18.0824C11.5693 18.0824 14.8564 14.7865 14.8564 10.6908C14.8564 10.2601 14.5488 9.94373 14.1094 9.94373C13.6875 9.94373 13.4062 10.2601 13.4062 10.6908C13.4062 13.9867 10.7695 16.6322 7.48242 16.6322C4.18652 16.6322 1.5498 13.9867 1.5498 10.6908C1.5498 7.38611 4.17773 4.75818 7.47363 4.75818C8.08008 4.75818 8.625 4.80212 9.1084 4.8988L6.69141 7.29822C6.55957 7.43884 6.48926 7.60583 6.48926 7.79041C6.48926 8.20349 6.79688 8.51111 7.19238 8.51111Z" fill="#1B1B1B" stroke="#1B1B1B" stroke-width="0.2"/>
</svg>
