<svg width="16" height="19" viewBox="0 0 16 19" fill="none" xmlns="http://www.w3.org/2000/svg">
<path fill-rule="evenodd" clip-rule="evenodd" d="M4.01918 0.099976H11.18C11.7142 0.0999653 12.16 0.0999565 12.5243 0.129716C12.9042 0.160753 13.2608 0.227864 13.5981 0.399709C14.1155 0.66336 14.5362 1.08406 14.7999 1.6015C14.9717 1.93877 15.0388 2.29542 15.0699 2.67531C15.0996 3.03954 15.0996 3.48538 15.0996 4.01952V5.68043C15.0996 6.21457 15.0996 6.66042 15.0699 7.02465C15.0388 7.40453 14.9717 7.76119 14.7999 8.09845C14.5362 8.6159 14.1155 9.03659 13.5981 9.30024C13.2608 9.47209 12.9042 9.5392 12.5243 9.57024C12.1601 9.6 11.7142 9.59999 11.1801 9.59998H4.01916C3.48501 9.59999 3.03917 9.6 2.67494 9.57024C2.29506 9.5392 1.9384 9.47209 1.60114 9.30024C1.08369 9.03659 0.662994 8.6159 0.399342 8.09845C0.227498 7.76119 0.160387 7.40453 0.129349 7.02465C0.0995903 6.66041 0.0995991 6.21457 0.0996098 5.68041V4.01954C0.0995991 3.48539 0.0995903 3.03954 0.129349 2.67531C0.160387 2.29542 0.227498 1.93877 0.399342 1.6015C0.662994 1.08406 1.08369 0.66336 1.60114 0.399708C1.9384 0.227864 2.29506 0.160753 2.67494 0.129716C3.03917 0.0999565 3.48502 0.0999653 4.01918 0.099976ZM2.79709 1.62473C2.50996 1.64819 2.37268 1.69008 2.28212 1.73622C2.04692 1.85606 1.85569 2.04729 1.73585 2.28249C1.68971 2.37305 1.64783 2.51033 1.62437 2.79745C1.60019 3.09333 1.59961 3.47755 1.59961 4.04998V5.64998C1.59961 6.2224 1.60019 6.60662 1.62437 6.9025C1.64783 7.18962 1.68971 7.3269 1.73585 7.41746C1.85569 7.65267 2.04692 7.84389 2.28212 7.96373C2.37268 8.00988 2.50996 8.05176 2.79709 8.07522C3.09297 8.09939 3.47718 8.09998 4.04961 8.09998H11.1496C11.722 8.09998 12.1063 8.09939 12.4021 8.07522C12.6893 8.05176 12.8265 8.00988 12.9171 7.96373C13.1523 7.84389 13.3435 7.65267 13.4634 7.41746C13.5095 7.3269 13.5514 7.18962 13.5749 6.9025C13.599 6.60662 13.5996 6.2224 13.5996 5.64998V4.04998C13.5996 3.47755 13.599 3.09333 13.5749 2.79745C13.5514 2.51033 13.5095 2.37305 13.4634 2.28249C13.3435 2.04729 13.1523 1.85606 12.9171 1.73622C12.8265 1.69008 12.6893 1.64819 12.4021 1.62473C12.1063 1.60056 11.722 1.59998 11.1496 1.59998H4.04961C3.47718 1.59998 3.09297 1.60056 2.79709 1.62473ZM0.0996101 13.35C0.0996101 12.9358 0.435397 12.6 0.84961 12.6H14.3496C14.7638 12.6 15.0996 12.9358 15.0996 13.35C15.0996 13.7642 14.7638 14.1 14.3496 14.1H0.84961C0.435397 14.1 0.0996101 13.7642 0.0996101 13.35ZM0.0996101 17.35C0.0996101 16.9358 0.435397 16.6 0.84961 16.6H10.3496C10.7638 16.6 11.0996 16.9358 11.0996 17.35C11.0996 17.7642 10.7638 18.1 10.3496 18.1H0.84961C0.435397 18.1 0.0996101 17.7642 0.0996101 17.35Z" fill="#1B1B1B" stroke="#1B1B1B" stroke-width="0.2" stroke-linecap="round" stroke-linejoin="round"/>
</svg>
